<svg xmlns="http://www.w3.org/2000/svg" data-name="Layer 2" viewBox="0 0 64 64" id="pet-carrier"><path d="M58.36,32.78,53.42,18.67a4.94,4.94,0,0,0-4.67-3.3H40V12.79a5.25,5.25,0,0,0-5.24-5.25H28.33a5.26,5.26,0,0,0-5.25,5.25v2.58H15.25a4.94,4.94,0,0,0-4.67,3.3L5.64,32.78c-3.51.44-3.51,5.83,0,6.27l4.94,14.11a5,5,0,0,0,4.67,3.3h33.5a5,5,0,0,0,4.67-3.3l4.94-14.11C61.87,38.61,61.87,33.22,58.36,32.78Zm-33.28-20a3.26,3.26,0,0,1,3.25-3.25h6.38A3.25,3.25,0,0,1,38,12.79v2.57H25.08Zm12.19,9.29c-1.24,4-5.58,2.37-4.37-1.66S38.48,18.05,37.27,22.08Zm-9.44-3.82c3.17-1.17,4.67,4.95,2.07,6C26.73,25.41,25.23,19.29,27.83,18.26ZM32,24.73c3,0,5.35,2.14,5.35,4.77,0,2.38-4.09,2.57-5.35,2.57-2,.08-5.5-.64-5.34-2.57A5.09,5.09,0,0,1,32,24.73Zm9.72-1.84a3.19,3.19,0,0,1-.86,3.86h0a2.43,2.43,0,0,1-3.77-.14C35.44,24.14,39.58,20,41.69,22.89Zm-19.45,0c2.11-2.9,6.25,1.26,4.63,3.72a2.43,2.43,0,0,1-3.77.14h0A3.19,3.19,0,0,1,22.24,22.89ZM16.83,51a1,1,0,0,1-2,0V43.29a1,1,0,1,1,2,0Zm5.39,0a1,1,0,0,1-2,0V43.29a1,1,0,1,1,2,0Zm5.39,0a1,1,0,0,1-2,0V43.29a1,1,0,0,1,2,0ZM33,51a1,1,0,0,1-2,0V43.29a1,1,0,1,1,2,0Zm5.39,0a1,1,0,0,1-2,0V43.29a1,1,0,0,1,2,0Zm5.39,0a1,1,0,0,1-2,0V43.29a1,1,0,1,1,2,0Zm5.39,0a1,1,0,0,1-2,0V43.29a1,1,0,0,1,2,0ZM59,36.06a1,1,0,0,1-1,1H6a1,1,0,0,1-1-1v-.29a1,1,0,0,1,1-1H58A1.09,1.09,0,0,1,59,36.06Z"></path></svg>