<?xml version="1.0" encoding="UTF-8"?><svg id="Layer_1" xmlns="http://www.w3.org/2000/svg" viewBox="0 0 215.79 84.43"><path d="m52.18,11.32c-.71-2-1.87-3.75-3.49-5.25s-3.69-2.69-6.22-3.58c-2.53-.88-5.5-1.32-8.92-1.32-.82,0-1.62.03-2.38.09-.77.06-1.56.15-2.38.26-.41-.53-1.27-.94-2.56-1.24-.59-.12-1.15-.21-1.68-.26-.53-.06-1.03,0-1.5.18s-.93.53-1.37,1.06c-.44.53-.84,1.29-1.19,2.3-1.71.65-3.49,1.38-5.34,2.21s-3.75,1.82-5.69,3c-.35.65-.57,1.31-.66,1.99-.09.68-.1,1.28-.04,1.81.06.65.15,1.27.26,1.85.35,1.18.96,1.9,1.81,2.16.85.26,1.72-.01,2.6-.84.82-.77,1.63-1.47,2.43-2.12s1.6-1.27,2.43-1.85c-.47,1.71-1.21,4.34-2.21,7.9-1,3.56-2.12,7.55-3.36,11.96s-2.52,8.98-3.84,13.68c-1.32,4.71-2.55,9.08-3.66,13.11-1.12,4.03-2.07,7.45-2.87,10.24s-1.25,4.46-1.37,4.99c-.24.88-.43,1.57-.57,2.07s-.25.9-.31,1.19C.03,77.22,0,77.5,0,77.76s.03.63.09,1.1c.06.82.25,1.46.57,1.9s.75.81,1.28,1.1c.29.18.81.4,1.55.66.74.26,1.63.54,2.69.84,1.06.29,2.25.54,3.58.75,1.32.21,2.75.31,4.28.31,4.12,0,8.12-.56,12.01-1.68,3.88-1.12,7.37-2.75,10.46-4.9s5.64-4.78,7.64-7.9,3.18-6.65,3.53-10.59c.12-1.59-.03-3.24-.44-4.94-.41-1.71-1.09-3.38-2.03-5.03-.94-1.65-2.12-3.18-3.53-4.59-1.41-1.41-3.03-2.65-4.86-3.71,2.3-1.59,4.39-3.34,6.27-5.25,1.88-1.91,3.53-3.88,4.94-5.92,1.41-2.03,2.55-4.09,3.4-6.18.85-2.09,1.37-4.11,1.55-6.05.18-2.24-.09-4.36-.79-6.36Zm-15.23,37.39c.62,1.03,1.09,2.18,1.41,3.44.32,1.27.43,2.69.31,4.28-.29,3.53-1.22,6.72-2.78,9.58-1.56,2.85-3.49,5.28-5.78,7.28-2.3,2-4.81,3.55-7.55,4.64-2.74,1.09-5.43,1.63-8.08,1.63-.77,0-1.47-.06-2.12-.18-.59-.12-1.18-.24-1.77-.35-.59-.12-1.06-.32-1.41-.62,1-4.77,1.94-9.26,2.83-13.46.88-4.21,1.71-7.9,2.47-11.08.82-3.71,1.65-7.15,2.47-10.33.06.53.24,1.09.53,1.68.29.59.71,1.1,1.24,1.55.53.44,1.18.77,1.94.97.77.21,1.68.16,2.74-.13,3.24-1,6.21-2.24,8.92-3.71.88.59,1.72,1.28,2.52,2.07.79.79,1.5,1.71,2.12,2.74Zm6.58-30.95c-.18,1.71-.63,3.56-1.37,5.56-.74,2-1.68,3.96-2.83,5.87s-2.49,3.71-4.02,5.39-3.12,3.05-4.77,4.11c-.71-.12-1.44-.22-2.21-.31-.77-.09-1.56-.13-2.38-.13-1.53,0-3.13.32-4.81.97-1.68.65-2.87,1.35-3.58,2.12.18-.65.34-1.27.49-1.85.15-.59.28-1.18.4-1.77.77-3.06,1.59-6.09,2.47-9.09.88-3,1.72-5.86,2.52-8.56.79-2.71,1.55-5.19,2.25-7.46.71-2.27,1.29-4.16,1.77-5.69,2.3-.77,4.5-1.15,6.62-1.15,3.18,0,5.64.99,7.37,2.96,1.74,1.97,2.43,4.99,2.07,9.05Z" fill="#eee" stroke-width="0"/><path d="m61.31,10.98c.16.14.36.18.61.14.25-.05.49-.14.72-.29.24-.15.45-.35.64-.59.19-.24.32-.49.39-.75.07-.23.1-.5.08-.8-.01-.3-.06-.57-.15-.81-.09-.24-.22-.44-.39-.59-.17-.15-.38-.2-.62-.16-.25.05-.54.2-.88.47-.34.27-.62.59-.84.97-.22.38-.33.79-.3,1.21.02.43.27.83.74,1.2Z" fill="#eee" stroke-width="0"/><path d="m215.64,21.61c-.1-.08-.24-.1-.4-.07s-.33.14-.49.33c-.45.55-1.01,1.21-1.7,1.98-.68.76-1.42,1.5-2.22,2.2-.79.7-1.61,1.31-2.44,1.8-.83.5-1.63.75-2.39.75-.36,0-.71-.05-1.06-.16-.35-.1-.66-.28-.92-.52-.27-.24-.49-.56-.67-.95-.18-.39-.28-.88-.3-1.46.34-.25.73-.54,1.18-.85.45-.31.92-.64,1.41-.99.45-.32.92-.68,1.43-1.07s.98-.83,1.43-1.32.83-1.03,1.16-1.63c.32-.6.52-1.26.59-1.98.05-.65-.12-1.19-.5-1.63-.38-.44-1-.66-1.85-.66-.9,0-1.79.29-2.67.87-.88.58-1.68,1.31-2.39,2.18-.71.88-1.3,1.84-1.79,2.89-.4.87-.66,1.71-.78,2.51-.4.48-.81.97-1.27,1.46-.53.58-1.05,1.11-1.56,1.59-.52.49-1.02.87-1.5,1.16-.48.29-.89.41-1.23.36-.43-.02-.78-.16-1.08-.42-.25-.23-.45-.61-.62-1.13-.17-.52-.18-1.28-.05-2.27.58-1.39,1.11-2.69,1.58-3.92.47-1.22.88-2.31,1.21-3.26.38-1.09.72-2.09,1.01-3.02.13-.39.24-.77.32-1.13.08-.36.16-.72.25-1.09.18,0,.35,0,.52-.02.17-.01.32-.02.46-.02.72,0,1.34.02,1.88.07.54.05,1,.09,1.4.14.39.05.73.1,1.01.17.28.07.53.12.76.14.22.05.42,0,.6-.14s.31-.31.39-.5c.08-.2.12-.39.1-.57s-.1-.3-.25-.35-.39-.13-.7-.26c-.32-.13-.73-.25-1.25-.38-.51-.13-1.14-.24-1.87-.35-.73-.1-1.56-.16-2.5-.16.23-1.18.35-2.15.37-2.91.02-.76-.02-1.24-.13-1.42-.11-.14-.29-.23-.54-.26-.25-.03-.5-.03-.77,0-.27.03-.52.09-.76.17s-.39.18-.45.29c-.22.32-.48.9-.76,1.72-.28.82-.57,1.79-.86,2.89-.38.07-.77.13-1.16.17-.09.01-.2.02-.3.03-.2-.06-.42-.12-.66-.18-.52-.13-1.14-.24-1.87-.35-.73-.1-1.56-.16-2.51-.16.22-1.18.35-2.15.37-2.91.02-.76-.02-1.24-.13-1.42-.11-.14-.29-.23-.54-.26s-.5-.03-.77,0c-.27.03-.52.09-.76.17-.24.08-.39.18-.45.29-.22.32-.48.9-.76,1.72-.28.82-.57,1.79-.86,2.89-.38.07-.77.13-1.16.17-.39.05-.8.08-1.23.1-.58.02-1.12.02-1.61-.02-.49-.03-.95-.08-1.38-.12-.13,0-.29.06-.45.19-.17.13-.31.28-.42.45-.11.17-.18.35-.2.52-.02.17.06.31.24.4.31.16.79.33,1.43.5.64.17,1.32.26,2.04.26.31,0,.66-.02,1.04-.07.38-.05.76-.09,1.14-.14-.31,1.34-.61,2.73-.89,4.18-.28,1.44-.53,2.8-.76,4.06-.06.31-.1.58-.15.87-.02.02-.04.03-.05.05-.45.55-1.02,1.21-1.7,1.98-.68.76-1.42,1.5-2.22,2.2-.8.7-1.61,1.31-2.44,1.8-.83.5-1.63.75-2.39.75-.36,0-.71-.05-1.06-.16-.35-.1-.66-.28-.93-.52-.27-.24-.49-.56-.67-.95-.18-.39-.28-.88-.3-1.46.34-.25.73-.54,1.18-.85.45-.31.92-.64,1.41-.99.45-.32.93-.68,1.43-1.07s.98-.83,1.43-1.32c.45-.49.83-1.03,1.16-1.63.32-.6.52-1.26.59-1.98.04-.65-.12-1.19-.5-1.63-.38-.44-1-.66-1.85-.66-.9,0-1.79.29-2.67.87-.89.58-1.68,1.31-2.39,2.18-.7.87-1.29,1.83-1.77,2.88-.04.02-.07.05-.11.07-.46.25-1,.47-1.61.66-.62.18-1.31.28-2.07.28-.18,0-.34-.02-.47-.07-.13-.05-.26-.09-.37-.14.58-.99,1.06-1.91,1.43-2.76s.58-1.51.62-1.99c.04-.32,0-.64-.15-.95-.15-.31-.51-.47-1.09-.47-.29,0-.62.12-.99.36s-.73.58-1.08,1.02c-.35.44-.66.98-.92,1.61-.27.64-.44,1.35-.5,2.13-.02.51.03.95.17,1.32-.38.72-.79,1.41-1.23,2.08-.44.67-.85,1.26-1.25,1.77-.39.51-.74.92-1.04,1.23-.3.31-.51.47-.62.47-.09,0-.21-.12-.37-.35-.16-.23-.3-.57-.44-1.02-.13-.45-.24-1.01-.3-1.66-.07-.66-.07-1.43,0-2.31.04-.51.12-1.04.22-1.59.1-.55.21-1.09.32-1.59s.22-.96.32-1.37c.1-.4.17-.71.22-.92.07-.23.05-.4-.03-.52-.09-.12-.22-.19-.39-.23-.17-.03-.35-.04-.56-.02-.2.02-.38.06-.54.1-.36.09-.66.21-.89.35-.24.14-.44.36-.61.66-.17.3-.31.72-.42,1.27-.09.44-.17,1-.25,1.67-.17.11-.33.23-.51.34-.53.34-1.07.65-1.63.95-.56.3-1.1.55-1.61.76.02-.18.04-.41.07-.68.02-.27.03-.49.03-.68,0-.9-.15-1.67-.44-2.31-.29-.64-.65-1.16-1.06-1.58-.41-.42-.84-.73-1.28-.94-.44-.21-.8-.32-1.09-.35-.07-.02-.13-.05-.18-.07-.06-.02-.12-.03-.18-.03-.4,0-.82.05-1.25.16-.43.1-.82.25-1.19.45-.37.2-.69.44-.97.75-.28.3-.49.65-.62,1.04-.38.46-.71.97-.99,1.53s-.51,1.11-.69,1.66c-.18.55-.32,1.1-.42,1.63-.07.37-.11.7-.13,1.03-.23.29-.46.59-.71.9-.46.57-.92,1.09-1.38,1.56-.46.47-.9.87-1.33,1.18s-.8.47-1.11.47c-.18,0-.34-.04-.49-.12-.15-.08-.27-.23-.37-.45-.1-.22-.18-.54-.25-.95-.07-.42-.12-.97-.17-1.66.11-.16.24-.34.37-.54.13-.2.27-.45.4-.76.13-.31.27-.69.42-1.14.15-.45.3-1,.45-1.65.22-.79.36-1.55.4-2.29.04-.74.07-1.29.07-1.66,0-.21-.13-.35-.4-.42-.09-.02-.2-.04-.32-.05-.12-.01-.27,0-.46.02-.45.02-.77.1-.97.23-.2.13-.43.47-.67,1.02-.13.28-.3.66-.49,1.14-.19.49-.37,1.03-.54,1.65-.17.61-.31,1.27-.44,1.98-.12.7-.18,1.43-.18,2.17,0,.39.03.77.1,1.14-.45.72-.94,1.3-1.48,1.75-.54.45-1.1.68-1.68.68-.9,0-1.49-.27-1.78-.8-.29-.53-.38-1.32-.27-2.36.04-.46.17-1.07.37-1.84.18-.67.44-1.54.79-2.6.35-1.06.82-2.39,1.43-3.99-.18-.07-.38-.1-.59-.1s-.42.01-.62.03c-.25.05-.48.09-.71.14-.58.18-1.04.53-1.36,1.02s-.59,1.08-.79,1.75c-.05.12-.13.4-.25.87-.12.46-.26,1.02-.42,1.68-.11.47-.21.98-.3,1.51-.07.09-.13.18-.21.27-.38.51-.79,1.03-1.23,1.58-.44.54-.86,1.04-1.26,1.49-.4.45-.79.82-1.14,1.11-.36.29-.65.43-.87.43-.27,0-.48-.06-.62-.19-.15-.13-.25-.29-.32-.5-.07-.21-.11-.43-.12-.68-.01-.24,0-.47.02-.68.07-.35.12-.64.17-.87.04-.23.08-.43.12-.61.03-.17.07-.35.1-.52.03-.17.07-.36.12-.57.22-1.06.4-1.93.54-2.6.13-.67.24-1.2.3-1.59.07-.39.1-.66.1-.81s-.01-.25-.03-.29c-.05-.02-.13-.03-.27-.03-.11,0-.27.01-.49.03-.21.02-.48.07-.79.14.47-.74.66-1.33.56-1.79-.1-.45-.31-.79-.62-1.02-.38-.25-.88-.44-1.48-.55-.52-.05-1.17.14-1.95.55-.79.42-1.58,1.03-2.39,1.85-.81.82-1.55,1.81-2.24,2.96-.56.95-.99,1.99-1.3,3.11-.02.02-.03.03-.04.05-.68.76-1.42,1.5-2.22,2.2-.8.7-1.61,1.31-2.44,1.8-.83.5-1.63.75-2.39.75-.36,0-.71-.05-1.06-.16-.35-.1-.66-.28-.93-.52-.27-.24-.49-.56-.67-.95-.18-.39-.28-.88-.3-1.46.34-.25.73-.54,1.18-.85.45-.31.92-.64,1.41-.99.45-.32.93-.68,1.43-1.07s.98-.83,1.43-1.32c.45-.49.83-1.03,1.16-1.63.32-.6.52-1.26.59-1.98.04-.65-.12-1.19-.5-1.63-.38-.44-1-.66-1.85-.66-.9,0-1.79.29-2.67.87-.89.58-1.68,1.31-2.39,2.18s-1.3,1.84-1.78,2.89c-.41.9-.67,1.75-.8,2.57-.51.67-1.04,1.34-1.61,1.99-.63.72-1.25,1.33-1.87,1.84-.62.51-1.13.76-1.53.76s-.62-.18-.66-.55c-.03-.37.02-.81.15-1.32.25-.79.45-1.51.62-2.17.17-.66.31-1.23.42-1.72l.37-1.53c.2-.74.29-1.42.25-2.05-.03-.62-.15-1.16-.34-1.61-.19-.45-.45-.8-.79-1.06s-.72-.38-1.14-.38c-.52,0-1.02.11-1.51.33-.49.22-.96.5-1.4.85-.44.35-.84.73-1.21,1.16s-.7.85-.99,1.27c.13-.39.25-.77.34-1.14.09-.32.18-.63.27-.92s.17-.51.24-.68c-.13-.12-.29-.2-.45-.26-.17-.06-.33-.1-.49-.12-.18-.02-.36-.03-.54-.03-.2.02-.39.07-.57.14-.18.05-.35.11-.52.19-.17.08-.33.19-.49.33-.23.88-.42,1.69-.59,2.43-.17.74-.31,1.39-.42,1.94-.05.26-.1.5-.16.74-.38.45-.8.94-1.31,1.51-.68.76-1.42,1.5-2.22,2.2-.8.7-1.61,1.31-2.44,1.8-.83.5-1.63.75-2.39.75-.36,0-.71-.05-1.06-.16-.35-.1-.66-.28-.93-.52-.27-.24-.49-.56-.67-.95-.18-.39-.28-.88-.3-1.46.34-.25.73-.54,1.18-.85.45-.31.92-.64,1.41-.99.45-.32.93-.68,1.43-1.07s.98-.83,1.43-1.32c.45-.49.83-1.03,1.16-1.63.33-.6.52-1.26.59-1.98.04-.65-.12-1.19-.5-1.63-.38-.44-1-.66-1.85-.66-.9,0-1.79.29-2.67.87-.89.58-1.68,1.31-2.39,2.18s-1.3,1.84-1.78,2.89c-.36.78-.61,1.54-.75,2.26-.57.68-1.18,1.35-1.84,2-.71.7-1.4,1.31-2.09,1.82s-1.25.76-1.7.76c-.16,0-.3-.05-.44-.16-.13-.1-.26-.29-.37-.57-.11-.23-.15-.57-.1-1.01s.13-.91.25-1.4c.12-.5.26-1.01.42-1.53.16-.52.29-.99.4-1.4.11-.42.28-.95.51-1.61.22-.66.44-1.3.64-1.92.2-.62.37-1.17.51-1.63s.19-.7.17-.73c-.04-.02-.21-.03-.49-.02s-.59.05-.92.1-.66.13-.98.23c-.31.09-.53.21-.64.35-.36.46-.68,1.17-.96,2.11s-.51,1.95-.69,3c-.18,1.05-.3,2.08-.37,3.09-.07,1.01-.07,1.8,0,2.37.02.39.14.77.34,1.13.2.36.45.67.76.94.3.27.64.47,1.01.62.37.15.75.21,1.13.19.47-.02,1.08-.32,1.83-.9.75-.58,1.52-1.28,2.3-2.1.41-.43.81-.87,1.2-1.33.04.46.13.89.26,1.27.28.81.66,1.47,1.13,1.98.47.51.99.88,1.56,1.13.57.24,1.1.36,1.6.36.94,0,1.91-.23,2.91-.69,1-.46,1.97-1.07,2.93-1.82.95-.75,1.86-1.61,2.71-2.57.16-.18.3-.37.46-.55-.03.12-.06.23-.09.36-.18.74-.35,1.44-.52,2.1-.17.66-.31,1.23-.44,1.72-.12.49-.2.8-.22.94-.04.21.07.31.35.31s.61-.07.99-.21c.38-.14.74-.32,1.08-.54s.54-.44.61-.68c.07-.32.15-.66.24-1.02.09-.36.19-.77.29-1.25.1-.47.22-1.01.35-1.59.13-.59.3-1.28.5-2.06.38-.58.77-1.14,1.16-1.68.39-.54.78-1.02,1.18-1.44.39-.42.78-.75,1.16-.99.38-.24.75-.36,1.11-.36.29,0,.48.17.57.5s.11.76.07,1.28c-.04.52-.14,1.1-.29,1.73-.15.64-.3,1.27-.47,1.91-.17.64-.33,1.22-.49,1.77-.16.54-.27.98-.34,1.3-.11.49-.13.94-.07,1.37.07.43.21.8.44,1.13s.52.58.89.78c.37.2.81.29,1.33.29s1.01-.16,1.56-.47c.55-.31,1.1-.72,1.67-1.21.56-.5,1.1-1.05,1.61-1.66.34-.41.65-.81.96-1.21.05.38.12.73.23,1.05.28.81.66,1.47,1.13,1.98s.99.88,1.56,1.13c.57.24,1.1.36,1.6.36.94,0,1.91-.23,2.91-.69,1-.46,1.97-1.07,2.93-1.82.72-.57,1.4-1.21,2.07-1.9-.02.32-.02.62,0,.9.07.75.22,1.36.47,1.84.25.47.55.82.91,1.04.36.22.69.33,1.01.33.67-.05,1.35-.2,2.02-.45.58-.23,1.2-.6,1.85-1.09.65-.5,1.25-1.21,1.78-2.13-.02.62.02,1.14.12,1.56.1.42.21.75.32,1.01.13.3.3.53.5.69.2.14.44.24.71.29.27.06.55.08.86.05.3-.02.6-.08.89-.17.29-.09.55-.21.77-.35.34-.23.76-.63,1.26-1.2.5-.57,1.02-1.19,1.55-1.87.17-.22.33-.45.5-.67,0,.1-.01.21-.01.3,0,.39.06.83.18,1.3.12.47.34.91.64,1.32.3.4.72.75,1.26,1.02.54.28,1.23.42,2.09.42s1.63-.23,2.32-.68,1.3-1.09,1.82-1.92c.25.81.54,1.43.89,1.85s.82.64,1.43.64c.67,0,1.39-.28,2.15-.83.76-.55,1.52-1.25,2.27-2.08.34-.38.67-.78.99-1.19,0,.09,0,.16.02.25.06.72.21,1.38.47,1.98.26.6.65,1.1,1.18,1.51s1.25.61,2.17.61c.79,0,1.51-.16,2.17-.47.66-.31,1.26-.75,1.78-1.3.53-.55.98-1.21,1.36-1.98.38-.76.68-1.58.91-2.46.67-.23,1.38-.58,2.12-1.04.66-.41,1.27-.83,1.84-1.26,0,.59,0,1.2.03,1.87.05,1.14.2,2.22.44,3.22.24,1.01.57,1.85,1.01,2.53.44.68,1,1.02,1.7,1.02.29,0,.68-.2,1.16-.61.48-.4,1.01-.94,1.58-1.59.57-.66,1.17-1.4,1.78-2.24s1.22-1.69,1.8-2.57c.22.07.44.12.64.14.2.02.37.03.5.03,1.45,0,2.73-.29,3.83-.84-.11.43-.19.84-.23,1.25-.11,1.16-.03,2.14.25,2.95.28.81.66,1.47,1.13,1.98s.99.88,1.56,1.13c.57.24,1.1.36,1.6.36.94,0,1.91-.23,2.91-.69,1-.46,1.97-1.07,2.93-1.82.95-.75,1.86-1.61,2.71-2.57.4-.45.78-.91,1.14-1.38-.13.95-.21,1.62-.23,1.98-.04.44-.01.92.1,1.44.11.52.31,1,.59,1.44.28.44.67.81,1.16,1.11.49.3,1.11.45,1.85.45.52,0,1.16-.29,1.92-.87.76-.58,1.55-1.31,2.35-2.2.81-.89,1.58-1.84,2.31-2.86.13-.18.23-.35.36-.53,0,0,0,.02,0,.03-.13.96-.21,1.62-.24,1.99-.04.44-.01.92.1,1.44.11.52.31,1,.59,1.44.28.44.67.81,1.16,1.11.49.3,1.11.45,1.85.45.52,0,1.16-.29,1.92-.87.76-.58,1.55-1.31,2.36-2.2.43-.47.85-.97,1.26-1.48.05.4.12.78.24,1.12.28.81.66,1.47,1.13,1.98s.99.88,1.56,1.13c.57.24,1.11.36,1.6.36.94,0,1.91-.23,2.91-.69,1-.46,1.97-1.07,2.93-1.82.95-.75,1.85-1.61,2.71-2.57.85-.96,1.61-1.95,2.29-2.96.16-.25.23-.48.23-.68s-.05-.34-.15-.42Zm-117.63-.73c.31-.75.65-1.39,1.01-1.91.36-.52.72-.92,1.09-1.2.37-.28.69-.42.96-.42.25,0,.44.1.57.29.14.2.18.51.14.95-.05.42-.26.91-.64,1.49-.38.58-1.05,1.25-2.02,2.01-.31.25-.63.49-.94.71-.31.22-.61.43-.87.64.16-.97.39-1.83.71-2.58Zm-28.73,0c.31-.75.65-1.39,1.01-1.91.36-.52.72-.92,1.09-1.2.37-.28.69-.42.96-.42.25,0,.44.1.57.29.14.2.18.51.14.95-.05.42-.26.91-.64,1.49-.38.58-1.05,1.25-2.02,2.01-.31.25-.63.49-.94.71-.31.22-.61.43-.87.64.16-.97.39-1.83.71-2.58Zm46.44-1.21c-.06.38-.14.86-.25,1.44s-.25,1.18-.4,1.8c-.16.62-.29,1.17-.4,1.63-.02.12-.12.3-.29.55-.17.25-.38.53-.64.83-.26.3-.55.59-.88.87-.33.28-.65.5-.97.68-.33.17-.65.27-.96.28-.31.01-.6-.11-.84-.36-.13-.14-.22-.43-.27-.88-.04-.45-.03-.98.05-1.58.08-.6.22-1.24.42-1.92.2-.68.47-1.32.81-1.92.81-1.46,1.52-2.46,2.14-3,.62-.54,1.05-.71,1.3-.5.07.09.11.22.13.38.02.14.02.33-.02.57-.03.24-.14.55-.32.92.18-.05.36-.08.54-.1.18-.02.32-.06.44-.1.13-.05.26-.08.37-.1.09-.02.11.16.05.54Zm29.3,6.79c-.21.4-.45.76-.72,1.07-.27.31-.57.57-.91.76-.34.2-.71.29-1.11.29-.36,0-.65-.1-.88-.29-.22-.2-.4-.45-.54-.76-.13-.31-.22-.67-.27-1.07-.04-.4-.07-.81-.07-1.23s.04-.86.14-1.32c.09-.46.2-.94.34-1.42.34.81.81,1.47,1.43,1.99.62.52,1.35.78,2.2.78.18,0,.34,0,.49-.02.14-.01.3-.03.45-.05-.16.44-.34.86-.55,1.27Zm1.4-4.8c0,.18-.03.4-.08.64-.06.24-.12.51-.18.81-.11.02-.22.04-.34.05-.11.01-.22.02-.34.02-.69,0-1.24-.11-1.63-.33-.39-.22-.68-.49-.86-.81-.18-.32-.29-.69-.34-1.09-.05-.4-.07-.79-.07-1.16,0-.23.03-.45.1-.66.34-.44.7-.78,1.09-1.02.39-.24.8-.36,1.23-.36.27,0,.5.12.69.36.19.24.35.55.47.94.12.38.21.8.25,1.27.04.46.04.91,0,1.35Zm24.86-2.69c.36-.52.72-.92,1.09-1.2.37-.28.69-.42.96-.42.25,0,.44.1.57.29.14.2.18.51.14.95-.05.42-.26.91-.64,1.49-.38.58-1.05,1.25-2.02,2.01-.31.25-.63.49-.94.71-.31.22-.61.43-.87.64.16-.97.39-1.83.71-2.58.31-.75.65-1.39,1.01-1.91Zm21.21-2.08c-.28,1.44-.53,2.8-.76,4.06-.04.21-.07.4-.1.6-.11.15-.24.33-.4.54-.34.45-.73.95-1.18,1.51-.45.55-.94,1.12-1.46,1.7-.53.58-1.05,1.11-1.56,1.59-.52.49-1.02.87-1.5,1.16-.48.29-.89.41-1.23.36-.43-.02-.78-.16-1.08-.42-.25-.23-.45-.61-.62-1.13-.17-.52-.18-1.28-.05-2.27.58-1.39,1.11-2.69,1.58-3.92.47-1.22.88-2.31,1.21-3.26.38-1.09.72-2.09,1.01-3.02.13-.39.24-.77.32-1.13.08-.36.16-.72.25-1.09.18,0,.35,0,.52-.02.11,0,.2,0,.3-.01.31.16.78.33,1.42.5.64.17,1.32.26,2.04.26.31,0,.66-.02,1.04-.07.38-.05.76-.09,1.14-.14-.31,1.34-.61,2.73-.89,4.18Zm12.4,2.08c.36-.52.72-.92,1.09-1.2.37-.28.69-.42.96-.42.25,0,.44.1.57.29.14.2.18.51.14.95-.05.42-.26.91-.64,1.49-.38.58-1.06,1.25-2.02,2.01-.31.25-.63.49-.94.71-.31.22-.61.43-.88.64.16-.97.39-1.83.7-2.58.31-.75.65-1.39,1.01-1.91Z" fill="#eee" stroke-width="0"/><path d="m90.37,57.47c-.18-.43-.38-.86-.61-1.3-.23-.44-.44-.87-.64-1.28-.16-.32-.3-.68-.44-1.07-.11-.32-.23-.7-.35-1.14-.12-.44-.22-.92-.29-1.46.34-.42.59-.76.77-1.02.18-.27.31-.49.4-.68s.16-.34.2-.45c.04-.23-.02-.46-.2-.68-.18-.22-.42-.42-.71-.61-.36-.18-.76-.19-1.21-.02-.45.17-.89.43-1.31.78-.43.35-.8.73-1.11,1.16-.31.43-.52.8-.61,1.13-.11.39-.08.74.08,1.04.17.3.23.54.18.73-.02.07-.15.27-.37.61s-.47.72-.74,1.14c-.27.43-.54.84-.81,1.25-.22.33-.39.57-.52.76-.25.29-.52.59-.81.92-.68.76-1.42,1.5-2.22,2.2-.8.7-1.61,1.31-2.44,1.8-.83.5-1.63.75-2.39.75-.36,0-.71-.05-1.06-.16-.35-.1-.66-.28-.93-.52-.27-.24-.49-.56-.67-.95-.18-.39-.28-.88-.3-1.46.34-.25.73-.54,1.18-.85.45-.31.92-.64,1.41-.99.45-.32.93-.68,1.43-1.07s.98-.83,1.43-1.32c.45-.49.83-1.03,1.16-1.63.32-.6.52-1.26.59-1.98.04-.65-.12-1.19-.5-1.63-.38-.44-1-.66-1.85-.66-.9,0-1.79.29-2.67.87-.89.58-1.68,1.31-2.39,2.18s-1.3,1.84-1.78,2.89c-.41.89-.67,1.74-.79,2.55-.37.43-.75.88-1.17,1.35-.52.58-1.03,1.11-1.55,1.59-.52.49-1,.89-1.46,1.21-.46.32-.85.49-1.16.49-.27,0-.52-.13-.74-.38s-.33-.67-.3-1.25c.02-.39.09-.91.18-1.56.1-.65.21-1.33.32-2.05.74-1.16,1.43-2.37,2.07-3.66.64-1.28,1.21-2.57,1.7-3.85.49-1.28.89-2.52,1.19-3.73.3-1.2.48-2.31.52-3.33.04-.83.04-1.49,0-1.98-.04-.49-.13-.85-.25-1.09-.12-.24-.28-.39-.45-.45-.18-.06-.38-.09-.61-.09-.18,0-.37.03-.57.1-.18.05-.37.12-.57.21-.2.09-.42.23-.64.42-.36,1.22-.68,2.39-.97,3.5-.29,1.11-.55,2.09-.77,2.95-.25.99-.48,1.92-.71,2.77-.13.58-.27,1.19-.4,1.84-.14.65-.28,1.31-.44,1.98-.07-.32-.17-.67-.32-1.04-.15-.37-.33-.71-.56-1.02s-.49-.57-.81-.76c-.31-.2-.66-.29-1.04-.29-.87,0-1.74.26-2.61.78-.86.52-1.64,1.22-2.32,2.11-.68.89-1.25,1.94-1.7,3.14-.45,1.2-.71,2.47-.77,3.81-.04.86.02,1.58.2,2.18.18.6.41,1.09.69,1.46.28.37.6.64.96.8.36.16.69.24,1.01.24.87,0,1.79-.32,2.74-.95.95-.64,1.9-1.5,2.84-2.58-.04.39-.08.67-.1.83-.02.37.03.74.15,1.11.12.37.3.7.52,1.01s.48.54.76.73.58.28.89.28c.43,0,.9-.14,1.43-.43.53-.29,1.08-.66,1.65-1.13.57-.46,1.14-.99,1.72-1.59.48-.51.94-1.03,1.38-1.56.04.47.13.89.26,1.28.28.81.66,1.47,1.13,1.98s.99.88,1.56,1.13,1.1.36,1.6.36c.94,0,1.91-.23,2.91-.69,1-.46,1.97-1.07,2.93-1.82s1.86-1.61,2.71-2.57c.56-.63,1.06-1.27,1.54-1.92.11-.15.25-.32.44-.57.29-.38.6-.8.93-1.25.33-.45.63-.88.91-1.3.28-.42.48-.72.59-.9.04.09.11.26.18.5.08.24.16.49.25.75.09.3.2.62.34.97.16.46.35.97.57,1.53.22.55.43,1.1.62,1.65s.33,1.05.42,1.53.09.84,0,1.09-.23.46-.42.62c-.19.16-.39.29-.61.38-.21.09-.43.14-.64.14s-.39-.05-.52-.14c-.11-.09-.24-.27-.37-.52-.11-.23-.26-.55-.44-.95-.18-.4-.38-.96-.61-1.68-.27.09-.51.17-.71.24-.2.07-.36.14-.47.21-.14.09-.25.17-.34.24-.23.21-.39.39-.51.55s-.24.38-.37.66c-.11.21-.1.51.05.9s.37.79.67,1.2c.3.4.67.76,1.11,1.06.44.3.89.45,1.36.45.67,0,1.32-.18,1.93-.55.62-.37,1.17-.81,1.65-1.33.48-.52.89-1.06,1.21-1.61.33-.55.52-1.03.59-1.42.04-.25.01-.57-.1-.94-.11-.37-.26-.77-.44-1.2Zm-29.49-1.61c-.08.44-.16.88-.25,1.32-.25.32-.57.73-.96,1.21-.39.49-.82.96-1.28,1.42-.46.46-.93.86-1.41,1.18s-.92.49-1.33.49c-.54,0-.96-.24-1.28-.73-.31-.49-.45-1.28-.4-2.39.04-.69.22-1.48.54-2.36.31-.88.71-1.7,1.18-2.48.47-.77.97-1.43,1.51-1.98.54-.54,1.06-.81,1.58-.81.36,0,.64.14.84.43s.35.62.45,1.01c.1.38.16.75.18,1.11.02.36.03.61.03.75,0,.28.04.48.13.61.09.13.26.13.5.02.04-.02.08-.05.12-.07.03-.02.07-.05.12-.07-.11.46-.21.91-.29,1.35Zm11.25-1.54c.31-.75.65-1.39,1.01-1.91.36-.52.72-.92,1.09-1.2.37-.28.69-.42.96-.42.25,0,.44.1.57.29.14.2.18.51.14.95-.05.42-.26.91-.64,1.49-.38.58-1.05,1.25-2.02,2.01-.31.25-.63.49-.94.71-.31.22-.61.43-.87.64.16-.97.39-1.83.71-2.58Z" fill="#eee" stroke-width="0"/><path d="m98.55,44.42c.16.14.36.18.61.14s.49-.14.72-.29c.24-.15.45-.35.64-.59.19-.24.32-.49.39-.75.07-.23.1-.5.08-.8-.01-.3-.06-.57-.15-.81-.09-.24-.22-.44-.39-.59-.17-.15-.38-.2-.62-.16-.25.05-.54.2-.88.47s-.62.59-.84.97c-.22.38-.32.79-.3,1.21.02.43.27.83.74,1.2Z" fill="#eee" stroke-width="0"/><path d="m143.69,57.47c-.18-.43-.38-.86-.61-1.3-.23-.44-.44-.87-.64-1.28-.16-.32-.3-.68-.44-1.07-.11-.32-.23-.7-.35-1.14-.12-.44-.22-.92-.29-1.46.34-.42.59-.76.77-1.02.18-.27.31-.49.4-.68s.16-.34.2-.45c.04-.23-.02-.46-.2-.68-.18-.22-.42-.42-.71-.61-.36-.18-.76-.19-1.21-.02-.45.17-.89.43-1.31.78-.43.35-.8.73-1.11,1.16-.31.43-.52.8-.61,1.13-.11.39-.08.74.08,1.04.17.3.23.54.18.73-.02.07-.15.27-.37.61s-.47.72-.74,1.14c-.12.2-.25.38-.37.58-.1.1-.2.22-.3.38-.29.46-.72,1.07-1.28,1.82-.56.75-1.16,1.48-1.78,2.2-.63.72-1.25,1.33-1.87,1.84-.62.51-1.13.76-1.53.76s-.62-.18-.66-.55c-.03-.37.02-.81.15-1.32.25-.79.45-1.51.62-2.17.17-.66.31-1.23.42-1.72l.37-1.53c.2-.74.29-1.42.25-2.05-.03-.62-.15-1.16-.34-1.61-.19-.45-.46-.8-.79-1.06-.34-.25-.72-.38-1.14-.38-.52,0-1.02.11-1.51.33-.49.22-.96.5-1.4.85-.44.35-.84.73-1.21,1.16-.37.43-.7.85-.99,1.27.13-.39.25-.77.34-1.14.09-.32.18-.63.27-.92s.17-.51.24-.68c-.13-.12-.29-.2-.45-.26-.17-.06-.33-.1-.49-.12-.18-.02-.36-.03-.54-.03-.2.02-.39.07-.57.14-.18.05-.35.11-.52.19-.17.08-.33.19-.49.33-.23.88-.42,1.69-.59,2.43-.17.74-.31,1.39-.42,1.94-.04.21-.08.4-.12.6-.09.09-.17.19-.25.3-.22.32-.57.73-1.04,1.23-.47.5-1.01,1.02-1.61,1.58-.61.55-1.25,1.1-1.92,1.63-.67.53-1.32.98-1.95,1.35.2-.92.41-1.87.62-2.84.21-.97.42-1.86.61-2.67.19-.81.35-1.51.47-2.1.12-.59.21-.96.25-1.13.11-.44.2-.77.27-1.01.07-.23.13-.42.2-.57.07-.15.14-.29.2-.43.07-.14.16-.34.27-.59,0-.09-.11-.2-.32-.31-.21-.12-.48-.17-.79-.17-.56,0-.98.14-1.26.43-.28.29-.53.83-.76,1.61-.04.12-.08.25-.1.4-.02.15-.06.29-.1.43-.07-.37-.17-.77-.3-1.2s-.32-.83-.57-1.21c-.25-.38-.55-.7-.91-.95s-.78-.38-1.28-.38c-1.05,0-2.01.34-2.86,1.01-.85.67-1.57,1.49-2.15,2.46-.58.97-1.03,2.01-1.35,3.12-.11.4-.2.78-.27,1.15-.03.04-.06.08-.1.12-.61.73-1.26,1.44-1.97,2.15-.71.7-1.4,1.31-2.09,1.82s-1.25.76-1.7.76c-.16,0-.3-.05-.44-.16s-.26-.29-.37-.57c-.11-.23-.15-.57-.1-1.01.04-.44.13-.91.25-1.4.12-.5.26-1.01.42-1.53.16-.52.29-.99.4-1.4.11-.42.28-.95.51-1.61.22-.66.44-1.3.64-1.92.2-.62.37-1.17.51-1.63.13-.46.19-.7.17-.73-.04-.02-.21-.03-.49-.02s-.59.05-.92.1c-.34.06-.66.13-.98.23-.31.09-.53.21-.64.35-.36.46-.68,1.17-.96,2.11s-.51,1.95-.69,3c-.18,1.05-.3,2.08-.37,3.09-.07,1.01-.07,1.8,0,2.37.02.39.14.77.34,1.13.2.36.46.67.76.94.3.27.64.47,1.01.62s.75.21,1.13.19c.47-.02,1.08-.32,1.83-.9.75-.58,1.52-1.28,2.3-2.1.48-.5.93-1.01,1.38-1.54.07,1.4.35,2.5.86,3.27.59.89,1.37,1.33,2.34,1.33,1.05,0,1.99-.28,2.81-.83.82-.55,1.52-1.24,2.1-2.05-.07.32-.15.69-.25,1.09-.1.4-.21.84-.32,1.3-.43.35-.88.73-1.35,1.14-.47.42-.96.86-1.48,1.32-1.05.92-1.92,1.7-2.59,2.32-.67.62-1.21,1.21-1.6,1.77-.39.55-.67,1.14-.82,1.75-.16.61-.24,1.38-.24,2.31,0,.67.08,1.4.25,2.18.17.79.43,1.52.79,2.2.36.68.8,1.25,1.33,1.7.53.45,1.16.68,1.9.68.49,0,.94-.23,1.34-.69.4-.46.77-1.06,1.11-1.79s.64-1.55.92-2.46.53-1.83.74-2.76c.21-.92.4-1.8.57-2.63.17-.83.31-1.53.42-2.08.11-.53.25-1.12.4-1.77.16-.65.35-1.49.57-2.53.52-.32,1.14-.75,1.87-1.27.73-.52,1.48-1.12,2.25-1.8.77-.68,1.53-1.42,2.27-2.22.07-.08.13-.16.2-.24-.04.15-.07.28-.1.43-.18.74-.35,1.44-.52,2.1-.17.66-.31,1.23-.44,1.72-.12.49-.2.8-.22.94-.04.21.07.31.35.31s.61-.07.99-.21c.38-.14.74-.32,1.08-.54s.54-.44.61-.68c.07-.32.15-.66.24-1.02s.19-.77.29-1.25c.1-.47.22-1.01.35-1.59.13-.59.3-1.28.5-2.06.38-.58.77-1.14,1.16-1.68.39-.54.78-1.02,1.18-1.44.39-.42.78-.75,1.16-.99.38-.24.75-.36,1.11-.36.29,0,.48.17.57.5.09.34.11.76.07,1.28-.04.52-.14,1.1-.29,1.73-.15.64-.3,1.27-.47,1.91-.17.64-.33,1.22-.49,1.77-.16.54-.27.98-.34,1.3-.11.49-.13.94-.07,1.37.07.43.21.8.44,1.13s.52.58.89.78c.37.2.81.29,1.33.29s1.01-.16,1.56-.47c.55-.31,1.1-.72,1.67-1.21.56-.5,1.1-1.05,1.61-1.66.52-.61,1-1.22,1.45-1.82.44-.58.81-1.13,1.13-1.65,0,0,0,0,.01-.01.11-.14.31-.4.61-.78.29-.38.6-.8.93-1.25.32-.45.63-.88.91-1.3.28-.42.48-.72.59-.9.04.09.11.26.18.5.08.24.16.49.25.75.09.3.2.62.34.97.16.46.35.97.57,1.53.22.55.43,1.1.62,1.65.19.54.33,1.05.42,1.53s.09.84,0,1.09-.23.46-.42.62c-.19.16-.39.29-.61.38-.21.09-.43.14-.64.14s-.39-.05-.52-.14c-.11-.09-.24-.27-.37-.52-.11-.23-.26-.55-.44-.95s-.38-.96-.61-1.68c-.27.09-.51.17-.71.24-.2.07-.36.14-.47.21-.14.09-.25.17-.34.24-.23.21-.39.39-.51.55s-.24.38-.37.66c-.11.21-.1.51.05.9.15.39.37.79.67,1.2.3.4.67.76,1.11,1.06.44.3.89.45,1.36.45.67,0,1.32-.18,1.93-.55s1.17-.81,1.65-1.33c.48-.52.89-1.06,1.21-1.61s.52-1.03.59-1.42c.04-.25.01-.57-.1-.94-.11-.37-.26-.77-.44-1.2Zm-34.42,11.13c-.18.77-.35,1.5-.52,2.17-.17.67-.31,1.27-.44,1.79-.12.52-.22.92-.29,1.2-.31,1.18-.61,2.11-.89,2.79-.28.68-.65,1.02-1.09,1.02-.18,0-.34-.05-.49-.16s-.27-.29-.37-.57c-.1-.28-.18-.66-.24-1.14-.06-.49-.08-1.11-.08-1.87s.11-1.43.32-2.01c.21-.58.5-1.12.86-1.61.36-.5.77-.97,1.23-1.42.46-.45.94-.92,1.43-1.4.2-.23.4-.43.59-.61s.38-.34.56-.5c-.2.79-.39,1.57-.57,2.34Zm2.72-12.08c-.07.32-.16.66-.29,1.01-.12.35-.23.62-.32.83-.11.21-.28.49-.5.83-.23.35-.51.69-.84,1.02-.34.34-.71.63-1.13.88s-.86.38-1.33.38c-.85,0-1.41-.29-1.68-.88-.27-.59-.4-1.37-.4-2.34,0-.79.11-1.61.34-2.48s.53-1.66.93-2.39c.39-.73.84-1.32,1.34-1.79.51-.46,1.04-.69,1.6-.69.34,0,.64.18.91.55.27.37.46.96.57,1.77.02.16.04.35.05.55s.04.42.09.62c.04.21.11.39.18.55.08.16.18.25.32.28.16.02.24.16.25.42.01.25-.02.54-.09.87Z" fill="#eee" stroke-width="0"/></svg>