<svg xmlns="http://www.w3.org/2000/svg" enable-background="new 0 0 100 100" viewBox="0 0 100 100" id="flower"><path d="M82.4,53.3c-1.5-3.4-3.7-6.5-6.6-8.9c2.8-2.6,4.9-5.8,6.3-9.5c0.2-0.4,0-0.9-0.4-1.2c-3-2.2-6.5-3.7-10.2-4.3
		c1.1-3.4,1.4-7.1,0.9-10.9c-0.1-0.4-0.4-0.8-0.9-0.9c-3.7-0.5-7.4-0.2-10.9,0.9c-0.6-3.7-2.1-7.2-4.3-10.2
		c-0.3-0.4-0.7-0.5-1.2-0.4c-3.7,1.4-6.9,3.5-9.5,6.3c-2.4-2.8-5.5-5.1-8.9-6.6c-0.4-0.2-0.9-0.1-1.2,0.3c-4.9,6-6.6,13.7-4.8,21.2
		C32.6,36.1,37,41.7,43.2,45c-6,6.3-9.3,14.5-9.3,23.2c0,1.7,0.1,3.4,0.4,5.1c-1.6-1.1-3.6-1.7-5.6-1.4c-0.4,0.1-0.8,0.4-0.9,0.9
		c-0.3,2.5,0.5,4.9,2.2,6.6c1.5,1.5,3.4,2.3,5.5,2.3c0.4,0,0.7,0,1.1-0.1c0,0,0,0,0,0c1.7,3.8,4,7.3,7.1,10.4
		c0.2,0.2,0.5,0.3,0.7,0.3s0.5-0.1,0.7-0.3c0.4-0.4,0.4-1,0-1.4C39.4,84.7,36.1,77,36,68.7c0.2,0,0.4,0,0.6,0c2.1,0,4-0.8,5.5-2.3
		c1.7-1.7,2.6-4.2,2.2-6.6c-0.1-0.4-0.4-0.8-0.9-0.9c-2.5-0.3-4.9,0.5-6.6,2.2c-0.1,0.1-0.1,0.1-0.2,0.2c1.2-5.7,4-10.9,8.1-15.2
		c3.2,6.6,9,11.4,16.1,13.1c1.9,0.5,3.9,0.7,5.8,0.7c5.5,0,10.9-1.9,15.3-5.5C82.5,54.2,82.6,53.7,82.4,53.3z M80,34.9
		c-2.5,6.3-7.7,11-14.2,13c-5.7,1.7-11.8,1.1-17-1.7c6.3-0.1,12.3-2.6,16.8-7.1c2.3-2.3,4-4.9,5.2-7.8C74.2,31.8,77.3,33.1,80,34.9z
		 M70.7,19.6c0.7,6.8-1.6,13.3-6.4,18.1c-4.8,4.8-11.4,7.1-18.1,6.4c-0.7-6.8,1.6-13.3,6.4-18.1C57.3,21.2,63.9,18.9,70.7,19.6z
		 M55.3,10.2c1.9,2.7,3.1,5.9,3.6,9.1c-2.9,1.2-5.5,3-7.8,5.2c-4.5,4.5-7,10.5-7.1,16.8c-2.8-5.2-3.4-11.3-1.7-17
		C44.3,17.9,49,12.8,55.3,10.2z M32.9,28.8c-1.6-6.6-0.2-13.4,4-18.8c3,1.4,5.6,3.5,7.7,6c-1.8,2.3-3.2,5-4.1,7.9
		C38.5,29.9,39.2,36.4,42,42C37.5,38.9,34.2,34.2,32.9,28.8z M35.7,79.7c-1.6,0-3-0.6-4.1-1.7s-1.7-2.6-1.7-4.1c1.6,0,3,0.6,4.1,1.7
		c0.7,0.7,1.2,1.5,1.4,2.4c0,0,0,0.1,0,0.1C35.6,78.6,35.7,79.1,35.7,79.7z M38.3,62.6c1.1-1.1,2.6-1.7,4.1-1.7c0,1.6-0.6,3-1.7,4.1
		c-1.1,1.1-2.6,1.7-4.1,1.7C36.6,65.2,37.2,63.8,38.3,62.6z M61.5,57.4C56,56,51.4,52.8,48.3,48.2c3.4,1.8,7.2,2.7,11,2.7
		c2.4,0,4.8-0.4,7.1-1.1c2.9-0.9,5.6-2.3,7.9-4.1c2.5,2.1,4.6,4.7,6,7.7C74.9,57.5,68.1,59,61.5,57.4z"></path></svg>